<?xml version="1.0" encoding="utf-8"?>
<!-- Generator: Adobe Illustrator 17.0.0, SVG Export Plug-In . SVG Version: 6.00 Build 0)  -->
<!DOCTYPE svg PUBLIC "-//W3C//DTD SVG 1.1//EN" "http://www.w3.org/Graphics/SVG/1.1/DTD/svg11.dtd">
<svg version="1.1" id="图层_1" xmlns="http://www.w3.org/2000/svg" xmlns:xlink="http://www.w3.org/1999/xlink" x="0px" y="0px"
	 width="441.223px" height="431.189px" viewBox="-1 -1 441.223 431.189" enable-background="new -1 -1 441.223 431.189"
	 xml:space="preserve">
<path fill="#7F8076" d="M440.121,373c0,17.67-0.12,35.33,0.1,53c0.05,3.43-0.65,4.61-4.11,4.06c-1.95-0.32-3.99-0.06-5.99-0.06
	c0.24-4.19-0.17-8.1-5.74-11c5.9,0.81,8.02-1.22,7.44-5.7c-0.97-7.43-1.93-14.86-3.09-22.26c-0.55-3.49-0.32-4.03,3.28-4.02
	c-0.95-1.7-4.17-2.07-2.9-4.95c2.33-2.35,4.66-4.7,7-7.04c0.19,0,0.29-0.06,0.32-0.17C437.641,374.19,438.511,372.87,440.121,373z"
	/>
<path fill="#D1D5D3" d="M436.431,374.86c0.3-0.83-3.6-4.49,1.36-2.34c0.47,0.2,1.54-0.98,2.33-1.52c0,0.67,0,1.33,0,2
	C438.511,372.87,437.641,374.19,436.431,374.86z"/>
<path fill="#D1D5D3" d="M436.111,375.03c0.11-0.05,0.22-0.11,0.32-0.17C436.401,374.97,436.301,375.03,436.111,375.03z"/>
<path fill="#010101" d="M429.891,317.72c1.35-0.84,2.9,0.22,2.97,1.56c0.12,2.27,0.77,2.48,2.57,1.5c1.18-0.64,2.22-1.41,2.7,1.08
	c0.24,1.3,1.01-1.18,1.99-0.86c0,9,0,18,0,27c-3.12,0.46-5.29-2.44-8.32-2.34c-0.23,0.01-0.69-0.4-0.66-0.55
	c1.39-7.52-3.45-3.11-5.96-3.15c1.99-3.99,4.71-7,9.98-7.14c-3.04-2.36-6.86-3.72-7.45-8.04c-0.12-0.88-1.32-1.69,0.27-2.25
	c1.98-0.71,2.12-1.91,1-3.44C427.861,319.55,428.971,318.3,429.891,317.72z"/>
<path fill="#010101" d="M426.061,365.03c0.46,0.09,0.92,0.18,1.37,0.27c-0.47-0.07-0.95-0.14-1.43-0.21L426.061,365.03z"/>
<polygon fill="#010101" points="426.061,365.03 426.001,365.09 426.001,365.08 "/>
<polygon fill="#010101" points="425.121,341.96 425.181,341.96 425.161,342 "/>
<path fill="#010101" d="M425.161,342c-0.31,0.28-0.62,0.55-0.94,0.83c0.3-0.29,0.6-0.58,0.9-0.87L425.161,342z"/>
<path fill="#D1D5D3" d="M419.331,387.19c-0.65-1.17,0.58-1.31,1.13-1.77c2.24-1.88,4.49-3.73,6.74-5.59
	c3.46-0.75,5.47-4.16,8.95-4.85l-0.04,0.05c-2.34,2.34-4.67,4.69-7,7.04c-2.44,1.72-4.83,3.51-7.33,5.13
	C421.131,387.61,420.081,388.53,419.331,387.19z"/>
<path fill="#7F8076" d="M410.991,318.05c-0.03-0.87,0.2-1.61,1.45-1.81c0.66,0.44,1.85,0.82,2.15,1.55c0.5,1.24-0.83,1.57-1.71,1.81
	C411.661,319.93,411.041,319.23,410.991,318.05z"/>
<polygon fill="#7F8076" points="410.691,311.26 410.801,311.55 410.511,311.52 "/>
<polygon fill="#D1D5D3" points="404.151,290.99 404.171,291.05 404.111,290.97 "/>
<polygon fill="#7F8076" points="404.111,290.97 404.171,291.05 403.941,291.1 "/>
<path fill="#7F8076" d="M403.941,291.1c-0.28,0.23-0.57,0.44-0.85,0.66c-0.07-0.14-0.15-0.27-0.22-0.41
	C403.221,291.27,403.581,291.19,403.941,291.1z"/>
<path fill="#7F8076" d="M391.411,409.7c2.63-0.76,6.83-0.57,6.86-6.06c0-1.7,5-4.56,9.12-5.16c-0.59,2.64-3.28,3.12-4.49,4.87
	c-0.85,1.24-2.94,1.74-1.14,3.95c0.84,1.04-0.4,2.65-1.56,2.69c-4.21,0.12-7.49,2.45-10.86,4.38c-6.32,3.63-12.41,7.67-18.7,11.36
	c-1.78,1.05-2.9,2.12-2.52,4.27c-3,0-6,0-9,0c5.03-4.47,11.07-7.67,16.16-11.88C380.251,414,385.361,411.44,391.411,409.7z"/>
<path fill="#7F8076" d="M399.891,378.16c-1.7,4.3-4.26,8.2-5.19,12.88c-0.39,1.98-1.99,3.74-4.41,4.08
	c2.21-4.92,5.95-9.78,6.14-14.78c0.23-6.07,3.83-9.51,6.38-13.91c0.39-0.66,0.97-1.35,2.21-0.99
	C404.321,370.08,401.561,373.92,399.891,378.16z"/>
<path fill="#7F8076" d="M394.391,380.7c0.18,0.12,0.36,0.24,0.54,0.36c-0.27,0.31-0.53,0.63-0.8,0.95l-0.05-0.04
	C394.181,381.54,394.281,381.12,394.391,380.7z"/>
<path fill="#7F8076" d="M392.141,384.97c0.26-1.25-0.1-2.9,1.94-3l0.05,0.04C394.081,383.42,394.131,384.89,392.141,384.97z"/>
<path fill="#7F8076" d="M392.101,385.03c0.55,1.83-0.22,3.2-1.59,4.35h-0.01c-0.16-0.16-0.34-0.33-0.51-0.5
	C390.161,387.3,390.551,385.85,392.101,385.03z"/>
<polygon fill="#7F8076" points="392.141,384.97 392.131,385.01 392.091,384.97 "/>
<polygon fill="#7F8076" points="392.131,385.01 392.101,385.03 392.091,384.97 "/>
<path fill="#7F8076" d="M390.341,390.63c0.14-0.42,0.22-0.83,0.16-1.25h0.01C390.571,389.8,390.481,390.22,390.341,390.63z"/>
<polygon fill="#7F8076" points="390.291,395.12 390.241,395.23 390.231,395.22 390.191,395.14 "/>
<polygon fill="#7F8076" points="390.241,395.23 390.241,395.24 390.161,395.16 390.231,395.22 "/>
<polygon fill="#7F8076" points="390.191,395.14 390.231,395.22 390.161,395.16 "/>
<path fill="#7F8076" d="M390.251,390.87c-0.06,0.15-0.13,0.31-0.2,0.46C390.121,391.17,390.191,391.02,390.251,390.87z"/>
<path fill="#7F8076" d="M386.061,393.03c0.72-0.1,1.27-0.36,1.25-1.22c0.9-0.97,1.79-1.95,2.68-2.93c0.17,0.17,0.35,0.34,0.51,0.5
	c0.06,0.42-0.02,0.83-0.16,1.25l-0.09,0.24c-0.06,0.15-0.13,0.3-0.2,0.46c-0.55,1.2-1.23,2.39-0.04,3.68l0.15,0.15
	C387.581,396.82,386.911,394.75,386.061,393.03z"/>
<path fill="#D1D5D3" d="M386.061,393.03c-0.36-0.86-2.27-1.43-0.87-2.55c0.76-0.6,1.55,0.63,2.12,1.33
	C387.331,392.67,386.781,392.93,386.061,393.03z"/>
<polygon fill="#D1D5D3" points="385.361,389.95 385.371,389.96 385.361,389.96 "/>
<polygon fill="#D1D5D3" points="385.361,389.95 385.361,389.96 385.351,389.96 385.341,389.95 "/>
<path fill="#D1D5D3" d="M384.301,388.83c0.35,0.38,0.7,0.75,1.06,1.12h-0.02C385.001,389.58,384.641,389.2,384.301,388.83z"/>
<path fill="#D1D5D3" d="M385.341,389.95l0.01,0.01c-0.26-0.02-0.47-0.08-0.63-0.19C384.881,389.87,385.091,389.93,385.341,389.95z"
	/>
<path fill="#D1D5D3" d="M384.301,388.83c0.34,0.37,0.7,0.75,1.04,1.12c-0.25-0.02-0.46-0.08-0.62-0.18l-0.15-0.13l-0.12-0.15
	C384.351,389.32,384.301,389.1,384.301,388.83z"/>
<path fill="#D1D5D3" d="M384.571,389.64l0.15,0.13L384.571,389.64z"/>
<path fill="#D1D5D3" d="M384.451,389.49l0.12,0.15L384.451,389.49z"/>
<polygon fill="#D1D5D3" points="384.231,251.31 384.231,251.65 383.861,251.48 "/>
<path fill="#D1D5D3" d="M382.151,388.53c-0.09-0.1-0.19-0.19-0.29-0.26c0.38-0.27,0.75-0.53,1.12-0.8c0.44,0.45,0.88,0.91,1.32,1.36
	c0,0.27,0.05,0.49,0.15,0.66l0.12,0.15l0.15,0.13c0.16,0.11,0.37,0.17,0.63,0.19l-0.16,0.11c-0.11,0.07-0.21,0.13-0.31,0.18
	l-0.11,0.05l-0.15,0.05l-0.07,0.02c-0.3,0.09-0.56,0.08-0.78-0.01c-0.53-0.19-0.87-0.79-1.23-1.33
	C382.421,388.85,382.291,388.68,382.151,388.53z"/>
<path fill="#D1D5D3" d="M382.151,388.53c0.14,0.15,0.27,0.32,0.39,0.5C382.411,388.85,382.291,388.68,382.151,388.53z"/>
<path fill="#7F8076" d="M379.371,217.55c1.98-1.14,5.22-1.9-0.46-3.6c3.53-1.38,6-0.04,8.21,0.77c1.21,0.44-0.52,1.8-1,2.74
	C384.031,221.55,381.681,217.47,379.371,217.55z"/>
<path fill="#D1D5D3" d="M381.861,388.27c-1.05-0.57-2.83-1.34-1.67-2.52c0.97-0.98,1.9,0.98,2.79,1.72
	C382.611,387.74,382.241,388,381.861,388.27z"/>
<polygon fill="#7F8076" points="375.221,320.1 375.091,320.01 375.091,320 375.101,320 "/>
<polygon fill="#010101" points="375.091,320 375.091,320.01 375.081,320 "/>
<path fill="#010101" d="M375.081,319.99V320c-0.31-0.06-0.62-0.15-0.93-0.25C374.461,319.84,374.771,319.93,375.081,319.99z"/>
<path fill="#010101" d="M372.771,319.25c0.45,0.18,0.92,0.35,1.38,0.5C373.691,319.61,373.221,319.43,372.771,319.25z"/>
<path fill="#D1D5D3" d="M375.511,380.79c-3.01,0.16-3.6-2.06-5-3.09c0.23-0.26,0.46-0.52,0.69-0.78
	C372.481,378.06,373.751,379.21,375.511,380.79z"/>
<path fill="#010101" d="M370.941,318.52c0.3,0.11,0.61,0.23,0.91,0.36C371.551,318.75,371.241,318.63,370.941,318.52z"/>
<path fill="#010101" d="M366.581,318.48c-0.09-0.4-0.39-1.03-0.24-1.15c0.48-0.42,0.79,0.01,0.97,0.47
	C367.081,318.05,366.841,318.27,366.581,318.48z"/>
<path fill="#D1D5D3" d="M364.221,371.82c-0.1-0.3-0.21-0.61-0.31-0.91c3.61,0.57,5.03,3.81,7.29,6.01
	c-0.23,0.26-0.46,0.52-0.69,0.78C368.421,375.74,366.321,373.78,364.221,371.82z"/>
<path fill="#7F8076" d="M363.911,370.91c0.1,0.3,0.21,0.61,0.31,0.91c-0.19-0.2-0.39-0.38-0.55-0.59
	C363.651,371.2,363.821,371.02,363.911,370.91z"/>
<polygon fill="#010101" points="357.831,35.5 357.701,35.73 357.601,35.48 "/>
<path fill="#7F8076" d="M355.411,364.66c0.53-0.24,1.06-0.48,1.58-0.72c0.32,0.37,0.55,0.9,0.95,1.09
	c4.33,2.13,5.62,5.29,3.15,10.13C359.051,371.54,355.201,369.29,355.411,364.66z"/>
<path fill="#D1D5D3" d="M354.561,363.79c-0.9-0.86-1.89-1.67-2.82-2.63c-1.25-1.28-2.41-2.82-3.18-5.07
	c3.82,2.7,6.41,4.96,8.43,7.85c-0.52,0.24-1.05,0.48-1.58,0.72v-0.01c-0.13-0.15-0.27-0.29-0.42-0.43
	C354.851,364.07,354.711,363.93,354.561,363.79z"/>
<path fill="#D1D5D3" d="M354.991,364.22c0.15,0.14,0.29,0.28,0.42,0.43C355.271,364.5,355.131,364.36,354.991,364.22z"/>
<path fill="#D1D5D3" d="M354.561,363.79c0.15,0.14,0.29,0.28,0.43,0.43C354.851,364.08,354.701,363.94,354.561,363.79z"/>
<path fill="#D1D5D3" d="M351.741,361.16c0.93,0.96,1.92,1.77,2.82,2.63C353.661,362.93,352.671,362.12,351.741,361.16z"/>
<path fill="#010101" d="M350.611,210.67c0.08,0.14,0.21,0.26,0.2,0.39c-0.01,0.12-0.17,0.23-0.26,0.34
	C350.571,211.16,350.591,210.92,350.611,210.67z"/>
<polygon fill="#010101" points="350.041,66.99 350.041,66.97 350.091,66.98 "/>
<polygon fill="#010101" points="349.091,409.83 349.111,409.95 349.071,409.9 "/>
<polygon fill="#7F8076" points="349.071,409.9 349.111,409.95 349.111,409.96 349.011,410.08 "/>
<path fill="#7F8076" d="M348.051,40.03c0.15,0.07,0.29,0.14,0.44,0.2c-0.17-0.04-0.34-0.09-0.51-0.14L348.051,40.03z"/>
<polygon fill="#010101" points="348.051,40.03 347.981,40.09 347.991,40.05 "/>
<path fill="#010101" d="M341.251,59.11c2.53-2.72-0.27-5.05-0.71-7.48c-0.82-4.58,2.77-10.52,7.45-11.58l-0.01,0.04
	c0.17,0.05,0.34,0.1,0.51,0.14c-0.15-0.06-0.29-0.13-0.44-0.2l-0.06,0.02c0.64-5,4.92-1.94,7.32-2.95c3.44-1.44,7.6,0.34,11.48-1.66
	c2.42-1.25,8.85,3.91,8.46,6.66c-0.57,4,1.91,6.68,3.14,9.9c0.33,0.86,1.88,1.44,1.12,2.49c-3.51,4.87,0.93,9.28,0.66,13.93
	c-0.4,6.87,0.12,13.77-4.09,20.11c-1.98,2.97-4.29,5.83-5.9,9.17c-1.12,2.3-4.14,3.53-6.9,3c-2.64-0.5-3.32-2.35-1.84-4.85
	c0.45-0.76-0.48-1.06-1.11-1.16c-5.1-0.86-2.74-7.14-6.52-8.95c3.57-1.42-2.31-5.99,3.19-6.88c-6.19-1.23-7.49-3.7-6.96-11.87
	l0.05-0.01l-0.05-0.01v0.02c-2.14,0.54-5.25,3.52-4.5-2.37c0.25-2.01-0.9-4.95-4.3-4.75C341.211,59.62,341.211,59.37,341.251,59.11z
	"/>
<path fill="#7F8076" d="M336.921,372.13c-1.54,0.4-1.93-0.8-2.47-1.78c-2.69-4.89-4.63-10.07-6.28-15.37
	C331.911,360.28,334.451,366.18,336.921,372.13z"/>
<polygon fill="#7F8076" points="333.091,329.99 333.301,330.16 333.021,330.05 "/>
<polygon fill="#010101" points="333.031,329.99 333.091,329.99 333.021,330.05 "/>
<path fill="#7F8076" d="M329.941,340.39c-0.51,0.46-1.05-0.12-1.41-0.59c0.29-0.36,0.58-0.72,0.87-1.07
	C330.191,339.09,330.701,339.69,329.941,340.39z"/>
<path fill="#7F8076" d="M311.081,340.99l2.12-1.15c2.58,4.78,5.28,9.49,7.63,14.37c5.75,11.97,12.6,23.32,18.68,35.09
	c1.57,3.02,4.03,5,7.69,2.6c1.38,0.38,1.44,3.43,3.81,1.81c2.66-1.81,5.84-0.55,8.67-1.36c1.47-0.41,2.83,0.69,2.42,1.59
	c-1.48,3.23-0.15,8.61-5.3,9.18c-4.52,0.5-6.54,2.87-7.71,6.7c-0.1-0.86-0.31-1.49-0.63-1.9l-0.14-0.16
	c-0.69-0.72-1.8-0.63-3.28,0.12c-1.67,0.84-3.27,0.67-4.5-0.81c-1.16-1.41-1.32-2.83-0.19-4.52c1.36-2.03,0.46-3.99-0.59-6.02
	c-9.43-18.13-18.76-36.32-28.15-54.47C311.441,341.73,311.261,341.36,311.081,340.99z"/>
<path fill="#010101" d="M303.121,163.64c3.38-6.63,9.9-5.79,14.98-1.23c6.36,5.72,10.24,13.13,12.18,21.33
	c1.27,5.39,6.27,8.83,6.66,14.69c0.12,1.95,4.89,1.21,4.8,5.02c-0.02,0.86,4.1,1.12,3.48,3.67c-0.33,1.34,2.98,2.5,0.01,3.55
	c0.25,0.21,0.47,0.58,0.75,0.63c5.27,0.87,2.21,4.92,2.61,7.45c0.4,2.5-0.54,5.19,0.14,7.79c0.37,1.42-0.09,2.28-1.25,3.36
	c-3.19,3.01-3.3,8.2-0.38,11.99c-3.66-0.21-6.46,1.53-9.36,3.06c-1.41,0.75-3.19,0.76-4.11-0.55c-1.19-1.71,1.3-1.86,1.86-3.15
	c-7.85,0.58-8.58-6.8-11.81-11.01c-3.33-4.35-5.72-9.58-6.91-15.15c-0.1-0.45-0.98-0.74-1.5-1.1c-4.41-5.67-8.82-11.33-13.23-17
	c0.3-1.43,0.15-2.48-1.74-2.12c-0.46-0.6-0.93-1.2-1.39-1.79c1.64-4.65,0-9.3-0.05-13.94
	C298.801,173.48,300.591,168.6,303.121,163.64z"/>
<path fill="#D1D5D3" d="M307.321,319.27c2.69-1.17,3.69,3.71,5.01,6.12c1.65,3.01,2.38,6.56,5.35,8.77
	c3.5,6.94,6.99,13.88,10.49,20.82c1.65,5.3,3.59,10.48,6.28,15.37c0.54,0.98,0.93,2.18,2.47,1.78c3.43,6.59,6.85,13.18,10.28,19.77
	c-3.66,2.4-6.12,0.42-7.69-2.6c-6.08-11.77-12.93-23.12-18.68-35.09c-2.35-4.88-5.05-9.59-7.63-14.37
	c-2.06-3.82-4.04-7.68-5.69-11.7C306.291,325.15,302.861,321.21,307.321,319.27z"/>
<path fill="#7F8076" d="M303.341,340.53c-0.09,0.16-0.18,0.33-0.27,0.49c-0.28-0.29-0.57-0.59-0.85-0.87
	C302.591,340.28,302.961,340.4,303.341,340.53z"/>
<polygon fill="#7F8076" points="302.221,340.15 302.011,340.08 302.081,340.01 "/>
<polygon fill="#010101" points="302.081,340.01 302.011,340.08 302.021,339.96 "/>
<path fill="#7F8076" d="M300.301,194.87c1.89-0.36,2.04,0.69,1.74,2.12h-0.01C300.421,197.13,299.891,196.39,300.301,194.87z"/>
<path fill="#010101" d="M298.131,317c0.21,0.35,0.43,0.68,0.64,1.02c-0.13,0.08-0.25,0.16-0.38,0.24c-0.09-0.42-0.19-0.84-0.28-1.25
	L298.131,317z"/>
<path fill="#010101" d="M297.141,314.98c1.04,0.32,1.19,1.08,0.99,2.01V317l-0.02,0.01c-1.15-0.23-1.16-1.07-1.03-1.97
	L297.141,314.98z"/>
<path fill="#010101" d="M290.871,332.44c0.27,0.26,0.53,0.56,0.8,0.85C291.411,333,291.151,332.71,290.871,332.44z"/>
<polygon fill="#010101" points="288.201,330.95 288.181,331.03 288.141,331.02 "/>
<polygon fill="#010101" points="288.201,330.95 288.141,331.02 288.131,331.02 287.861,330.78 "/>
<polygon fill="#D1D5D3" points="283.171,256.03 283.171,256.04 283.091,256.04 283.101,256.03 "/>
<polygon fill="#D1D5D3" points="283.131,256 283.151,255.98 283.171,256.03 283.101,256.03 "/>
<path fill="#7F8076" d="M283.151,255.98l-0.02,0.02l-0.03,0.03h-0.01c-0.09-0.08-0.18-0.16-0.28-0.24
	C282.921,255.86,283.041,255.92,283.151,255.98z"/>
<path fill="#D1D5D3" d="M283.101,256.03l0.03-0.03L283.101,256.03z"/>
<path fill="#7F8076" d="M280.511,166.7c0.08-1.8,0.92-2.99,2.96-3.16c0.86,2.15-0.61,3.03-1.98,3.88
	C281.351,167.51,280.491,166.94,280.511,166.7z"/>
<path fill="#7F8076" d="M265.431,251.82c-1.35-0.11-1.87-0.82-1.83-1.66c0.11-1.88,1.68-2.28,3.13-2.62
	c0.77-0.18,1.47,0.57,1.17,1.11C267.211,249.86,266.191,250.88,265.431,251.82z"/>
<polygon fill="#D1D5D3" points="263.141,256 262.981,256.17 263.101,255.96 "/>
<path fill="#7F8076" d="M259.291,182.28c-1.13-1.82-4.14-2.79-2.66-5.65c0.29-0.57,1.16-1.37,1.49-0.82
	C259.271,177.73,260.101,179.83,259.291,182.28z"/>
<polygon fill="#7F8076" points="251.331,191.77 251.141,192.04 251.091,191.99 "/>
<polygon fill="#D1D5D3" points="251.141,192.04 251.111,192.03 251.091,191.99 "/>
<path fill="#D1D5D3" d="M250.071,260.04c0.08,0.5,0.17,1,0.25,1.49c-0.15-0.01-0.34,0.04-0.43-0.03
	C249.281,260.92,249.671,260.47,250.071,260.04z"/>
<polygon fill="#D1D5D3" points="250.111,259.99 250.071,260.04 250.051,259.95 "/>
<polygon fill="#D1D5D3" points="248.351,201.6 248.011,201.71 248.041,201.44 "/>
<polygon fill="#D1D5D3" points="244.161,181.97 244.161,182.03 244.091,182.04 "/>
<polygon fill="#D1D5D3" points="244.081,181.96 244.161,181.97 244.091,182.04 "/>
<path fill="#7F8076" d="M244.151,187.96c0.12,0.07,0.25,0.15,0.38,0.22c-0.15-0.05-0.3-0.1-0.45-0.15L244.151,187.96z"/>
<polygon fill="#D1D5D3" points="244.151,187.96 244.081,188.03 244.081,187.97 "/>
<path fill="#D1D5D3" d="M241.591,180.31c-0.14-0.55,0.26-0.98,0.8-0.82c1.2,0.35,1.63,1.31,1.69,2.47
	C242.951,181.87,241.921,181.56,241.591,180.31z"/>
<path fill="#7F8076" d="M248.351,201.6l-0.31-0.16l-0.03,0.27L248.351,201.6z M254.231,198.73c1.19,0.42,2.41-1.31,3.76-0.53
	c1.81,1.06-1.76,1.26-0.41,2.92c1.93,2.37,1.09,4.08-1.44,3.58c-3.86-0.75-7.56-0.64-11.56,0.85c2.07-4.97,0.48-7.93-3.65-9.39
	c-0.22-0.08-0.45-0.16-0.67-0.24l1.01-1.69l0.06,0.04c0.6,0.36,1.16,1.24,1.91-0.03c1.89-3.19,4.83-2.95,7.87-2.21
	C252.291,194.21,251.041,197.6,254.231,198.73z"/>
<path fill="#010101" d="M255.451,295.75c0.82-0.04,1.88,1.16,2.09-0.63c0.12-1.05-0.38-1.46-1.43-2.09
	c-5.16-3.09-9.84-6.87-14.14-11.11c-1.25-1.23-1.99-2.65-2.13-4.38c-0.19-2.43-1.94-6.52,3.36-3.02c1.73,1.14,3.5-0.35,5.24-0.73
	c3.27-0.71,6.65-1.83,9.58-2.9c5.41-1.96,10.07,0.18,14.53,1.04c6,1.17,10.99-0.08,15.55-2.84c5.31-3.2,11.05-1.77,16.51-2.84
	c2.33-0.46,1.6,2.42,1.28,3.85c-1.17,5.31-4.04,9.83-7.84,13.51c-5.16,5.03-11.39,8.91-14.54,15.92c-1.16,2.6-4.68,3.24-7.16,4.85
	c4.57,0.51,8.86-0.5,13.16-1.3c1.45-0.28,3.18-0.5,3.39,0.92c0.58,4.04,3.81,6.96,4.24,10.98l-0.06,0.06
	c-2.5-1.17-3.79,0.76-4.63,2.32c-1.04,1.9-2.78,3.21-4.3,2.58c-3.73-1.57-6.12,0.52-8.89,2.13c-3.32,1.92-6.57,3.69-10.83,2.08
	c-2.9-1.1-5.48,1.49-7.67,2.91c-3.86,2.51-6.24,0.16-9.07-1.45c-1.02-0.58-1.99-2.94-3.24-0.2c-0.57-0.29-1.47-0.44-1.65-0.89
	c-1.91-4.55-6.29-5.4-10.44-7.44c-0.55-1.78,2.34-3.13,1.41-5.89c-0.67-2.01,2.83-1.82,3.81-1.36c3.07,1.45,5.86-0.38,8.73-0.08
	c2.05,0.22,2.16-1.39,1.59-2.02c-3.06-3.38-4.98-7.47-7.47-11.18c-1.24-1.84-2.72,1.37-4.38,0.76c-0.59-1.17,0.69-1.24,1.04-1.85
	c2.18-3.81,4.23-7.86,6.55-0.01c0.33,1.14,2,1.5,3.44,1.13C252.521,296.21,253.981,295.81,255.451,295.75z"/>
<path fill="#D1D5D3" d="M239.161,188.98l-0.04,0.05l-0.02,0.01l-0.28-0.22C238.931,188.88,239.051,188.93,239.161,188.98z"/>
<path fill="#7F8076" d="M221.951,197.08c-0.09-1.33,0.57-1.71,1.78-1.42c0.48,1.03,0.38,1.98-0.7,2.45
	C222.201,198.48,221.941,197.82,221.951,197.08z"/>
<path fill="#7F8076" d="M219.301,200.08c-0.21-1.32,0.12-2.21,1.68-2.14C221.361,199.4,221.051,200.3,219.301,200.08z"/>
<path fill="#7F8076" d="M217.401,203.11c-0.46-1.63-0.07-2.74,1.8-2.95C219.601,201.75,219.321,202.93,217.401,203.11z"/>
<path fill="#010101" d="M219.861,160.12c6.21,5.5,8.04,11.26,6.7,18.8c-0.61,3.43,3.48,6.19,0.95,10.21
	c-1.13,1.8-4.18,2.92-3.2,5.92c-0.23,0.17-0.42,0.37-0.58,0.61c-1.21-0.29-1.87,0.09-1.78,1.42c-0.32,0.29-0.65,0.58-0.97,0.86
	c-1.56-0.07-1.89,0.82-1.68,2.14l-0.1,0.08c-1.87,0.21-2.26,1.32-1.8,2.95c-0.42,0.61-0.83,1.23-1.25,1.84
	c-3.96,0.56-3.68,3.88-4.31,6.61l-0.13,0.15c-4.32,2.43-6.31,6.59-7.77,10.99c-1.67,5.05-7.05,9.39-12.38,9.66
	c-0.8,0.04-1.64,0.31-2.34,0.68c-7.7,4.11-15.37,0.85-23.04-0.08c-0.47-0.06-1.33-0.42-1.33-0.48c0.94-3.8-3.34-4.76-4.06-7.44
	c-1.3-4.79-4.16-8.66-6.55-12.83c-1.27-2.22,1.31-2.77,2.03-4.14c0.58-1.1,3.26-1.03,2.14-2.64c-1.89-2.73-0.49-3.52,0.75-6.08
	c1.83-3.78,4.77-6.89,6.23-10.8c1.16-3.1,3.75-4.59,6.68-5.39c1.98-0.55,2.55-1.78,3.76-3.3c6.03-7.55,8.23-17.76,18.14-22.82
	C204.701,151.56,210.881,152.16,219.861,160.12z"/>
<path fill="#7F8076" d="M216.151,204.95c0.85,0.36,2.15,1.52,1.75,1.69c-2.56,1.05-1.4,6.68-6.06,4.92
	C212.471,208.83,212.191,205.51,216.151,204.95z"/>
<path fill="#7F8076" d="M216.151,304.01c-0.06,0.11-0.13,0.22-0.2,0.33c0.05-0.12,0.08-0.25,0.12-0.37L216.151,304.01z"/>
<polygon fill="#7F8076" points="216.081,303.94 216.151,304.01 216.071,303.97 "/>
<path fill="#7F8076" d="M213.731,224.33c0.1,0.15,0.2,0.31,0.31,0.47c-0.28,0.04-0.55,0.09-0.83,0.15
	C213.381,224.75,213.551,224.53,213.731,224.33z"/>
<path fill="#7F8076" d="M212.191,229.94c0.76-0.86,1.63-1.25,2.81-0.51C214.171,230.43,213.121,229.91,212.191,229.94z"/>
<path fill="#010101" d="M230.031,316.05c-3.26-0.64-6.73-0.61-10.09-1.22c-2-0.37-10.31-7.85-10.4-9.89
	c-0.07-1.56,1.39-2.17,2.42-2.91c2.43-1.74,2.74,1.28,4.11,1.94c-0.04,0.12-0.07,0.25-0.12,0.37c0.07-0.11,0.14-0.22,0.2-0.33
	l-0.07-0.07c2.11,0.23,3.02,3.42,6.1,1.96c1.52-0.73,2.59,1.84,2.81,3.38c0.65,4.46,2.93,2.94,5.06,1.48
	c1.37-0.94,2.17-3.05,4.39-1.43c1.47,1.07,1.17,2.02,0.22,3.26C233.441,314.18,233.621,316.76,230.031,316.05z"/>
<polygon fill="#7F8076" points="213.081,224.97 213.211,224.95 213.141,225.03 213.081,224.98 "/>
<polygon fill="#7F8076" points="212.181,229.95 212.121,230.02 212.071,229.95 "/>
<polygon fill="#D1D5D3" points="212.051,230.03 212.071,229.95 212.121,230.02 "/>
<polygon fill="#7F8076" points="208.091,327.96 208.171,328.05 207.971,328.09 "/>
<polygon fill="#010101" points="208.161,327.97 208.171,328.05 208.091,327.96 "/>
<path fill="#7F8076" d="M207.971,328.09c-0.24,0.27-0.48,0.53-0.72,0.8c-0.13-0.19-0.26-0.38-0.4-0.58
	C207.221,328.24,207.601,328.17,207.971,328.09z"/>
<polygon fill="#7F8076" points="204.311,239.53 203.991,239.61 204.041,239.36 "/>
<polygon fill="#D1D5D3" points="186.171,143.95 186.191,144.01 186.111,144.02 "/>
<polygon fill="#7F8076" points="186.171,143.95 186.111,144.02 185.951,143.9 "/>
<path fill="#7F8076" d="M185.951,143.9c-0.34-0.08-0.67-0.16-1.02-0.23c0.07-0.13,0.14-0.25,0.2-0.38
	C185.411,143.49,185.681,143.7,185.951,143.9z"/>
<path fill="#010101" d="M166.831,310.01c-0.2,0.29-0.4,0.56-0.6,0.84c0.07-0.34,0.14-0.68,0.21-1.02
	C166.571,309.89,166.701,309.95,166.831,310.01z"/>
<polygon fill="#010101" points="166.231,310.85 166.191,311.07 166.181,311.06 166.131,311.02 166.121,311.02 166.121,311.01 "/>
<polygon fill="#010101" points="166.191,311.07 166.141,311.08 166.121,311.02 166.131,311.02 166.181,311.06 "/>
<path fill="#7F8076" d="M166.181,311.06l-0.05-0.04L166.181,311.06z"/>
<path fill="#7F8076" d="M153.191,303.96c2.08-3.34,4.3-4.19,7.48,0C157.731,303.96,155.451,303.96,153.191,303.96z"/>
<path fill="#7F8076" d="M156.061,296.71c0.13,0.06,0.24,0.15,0.33,0.25C156.301,296.85,156.191,296.77,156.061,296.71z"/>
<path fill="#7F8076" d="M155.511,298.8c-0.37-0.07-0.9-0.46-0.98-0.8c-0.16-0.68,0.26-1.29,0.97-1.37c0.22-0.02,0.4,0.01,0.56,0.08
	c0.13,0.06,0.24,0.14,0.33,0.25c0.19,0.21,0.32,0.49,0.39,0.8C156.721,298.54,156.211,298.92,155.511,298.8z"/>
<path fill="#010101" d="M155.511,298.8c0.7,0.12,1.21-0.26,1.27-1.04c-0.07-0.31-0.2-0.59-0.39-0.8c-0.09-0.1-0.2-0.19-0.33-0.25
	c-0.16-0.07-0.34-0.1-0.56-0.08c-0.71,0.08-1.13,0.69-0.97,1.37C154.611,298.34,155.141,298.73,155.511,298.8z M150.041,297.51
	c0.6-3.14,2.54-4.72,5.68-4c3.33,0.77,6.56,1.95,10.24,3.57c-5.72,0.29-4.05,3.67-3.65,6.46l0.05,0.27l-1.69,0.15
	c-3.18-4.19-5.4-3.34-7.48,0h-0.11l0.05,0.07c-1.27,0.22-2.54,0.45-4.36,0.77C149.231,302.2,149.601,299.85,150.041,297.51z"/>
<polygon fill="#7F8076" points="153.081,303.96 153.191,303.96 153.151,304.03 "/>
<polygon fill="#010101" points="153.151,304.03 153.131,304.03 153.081,303.96 "/>
<path fill="#7F8076" d="M147.101,313.56c2.86,1.08,5.7,0.46,8.74-1.22c-0.14,0.94-0.05,1.47-0.28,1.74
	c-4.16,4.98-4.16,4.96-8.24-0.3L147.101,313.56z"/>
<path fill="#7F8076" d="M146.071,313.02c0.33,0.19,0.73,0.33,1.03,0.54c-0.36-0.13-0.73-0.29-1.09-0.48L146.071,313.02z"/>
<polygon fill="#010101" points="146.021,313.02 146.071,313.02 146.011,313.08 "/>
<path fill="#7F8076" d="M131.091,190.52c0.17,0.19,0.34,0.39,0.51,0.59c-0.24,0.13-0.46,0.28-0.72,0.37l-0.25-0.32
	C130.741,190.92,130.931,190.73,131.091,190.52z"/>
<path fill="#010101" d="M112.121,6c2.67,0,5.33,0,8,0c-0.06,3.58-4.8,2.98-5.04,6.72C113.451,10.21,111.761,8.54,112.121,6z"/>
<path fill="#D1D5D3" d="M121.851,202.03c4.76,0.2,9.52,0.53,14.27-0.15c1.42-0.21,2.93-1.25,3.91,0.71
	c0.21,0.41,0.46,1.11,0.27,1.36c-1.12,1.5-2.43,0.17-3.61,0.02c-2.76-0.36-5.23,1.05-7.89,1.02c-1.99-0.02-4.58,3.01-5.85-1.56
	c-0.11-0.39-0.51-0.56-1.07-0.56L121.851,202.03z"/>
<path fill="#010101" d="M111.861,17.74c-2.18-0.2-2.56-2.6-2.55-4.62c0-1.45,0.92-2.21,2.24-1.61c1.52,0.69,2.86,1.75,4.47,2.77
	C114.371,15.73,113.011,17.85,111.861,17.74z"/>
<polygon fill="#D1D5D3" points="103.151,217.02 103.151,217.03 103.081,216.96 "/>
<polygon fill="#7F8076" points="103.151,217.03 103.091,217.05 103.081,216.96 "/>
<path fill="#010101" d="M103.851,2.26c5.94-0.27,7.26,1.37,5.51,6.06c-6.3-4.55-14.36-3.51-15.3,2.24
	c-2.49-2.05-5.18-3.51-0.42-6.22c2.09-1.18,4.38-2.82,5.48-5.34c0.67,0,1.33,0,2,0C99.311,2.39,101.011,2.39,103.851,2.26z"/>
<path fill="#7F8076" d="M100.061,220.26c-1.65-0.42-3.48-0.08-5.69-0.08c2.45-3.13,5.99-2.05,8.72-3.13
	C103.231,219.16,103.391,221.09,100.061,220.26z"/>
<polygon fill="#D1D5D3" points="86.381,277.75 86.131,278.03 86.081,277.98 "/>
<polygon fill="#D1D5D3" points="86.081,277.98 86.131,278.03 86.071,278.02 "/>
<polygon fill="#D1D5D3" points="79.071,276.95 79.141,277 79.061,277.09 "/>
<polygon fill="#D1D5D3" points="79.091,276.95 79.141,277 79.071,276.95 "/>
<path fill="#D1D5D3" d="M78.521,277.67c0.17-0.2,0.35-0.39,0.54-0.58c-0.03,0.26-0.05,0.52-0.07,0.77
	C78.831,277.8,78.671,277.73,78.521,277.67z"/>
<path fill="#010101" d="M105.281,6.97c3.07,2.77,4.92,6.71,10.35,6.78c2.72,0.03,5.3,4.78,6.32,6.94c2.4,5.08,7.09,8.8,8.13,14.75
	c0.52,3.01,3.05,5.8,5.08,8.37c3.32,4.22,4.3,8.42,1.91,13.49c-0.84,1.77-0.31,4.17-0.55,6.26c-0.13,1.13-0.72,3.21-0.85,3.21
	c-6.19-1.02-3.65,7.74-8.83,7.83c-1.19,0.02-1.62,1.11-0.86,2.19c2.72,3.89,0,5.31-2.97,6.58c-3.35,1.42-7.41,1.2-9.52,5.43
	c-0.58,1.17-4.2,0.89-6.44,1.14c-2.5,0.28-4.15,0.74-5.68,3.57c-2.18,4-6.63,6.65-10.18,9.49c-4.05,3.24-6.96,7.78-11.78,10.15
	c-2.7,1.32,0.89,2.07,0.72,3.29c-4.58,3.11-9.46,0.61-14.12,0.47c-4.48-0.14-8.44-8.91-7.29-13.74c1.57-6.64,3.45-13.5,1.6-20.24
	c-1.27-4.61-1.4-8.67,1.28-12.47c1.23-1.73-1.24-1.67-0.8-3.28c0.9-3.32,0.28-6.87,2.86-10c0.78-0.94,0-4.26-0.24-6.35
	c-0.3-2.68,4.05-5.51-0.24-8.13c-0.52-0.32,1.44-2.68,2.35-1.94c4.16,3.38,3.73-1.85,5.56-2.72c-1.52-2.18,1.86-5.45-1.69-7.27
	c-0.69-0.35-1.44-2.37-0.32-2.28c4.22,0.32,3.33-3.48,4.53-5.34c1.03-1.6,0.96-3.77,3.47-1.6c0.29,0.25,1.05,0.9,0.9,0.05
	c-0.86-4.92,3.43-1.94,5.07-3.47c-2.41-4.54-1.6-6.85,4.28-7.46c1.96-0.2,3.96-3.29,6.79-4.52
	C98.231,4.37,101.671,3.71,105.281,6.97z"/>
<path fill="#D1D5D3" d="M48.101,282.36c2.07-4.48,5.18-4.59,7.91-5.41c0.1,0.43,0.19,0.85,0.29,1.28
	C53.901,279.44,51.491,280.65,48.101,282.36z"/>
<path fill="#010101" d="M146.011,313.08c0.36,0.19,0.73,0.35,1.09,0.48l0.22,0.22c4.08,5.26,4.08,5.28,8.24,0.3
	c0.23-0.27,0.14-0.8,0.28-1.74c-3.04,1.68-5.88,2.3-8.74,1.22c-0.3-0.21-0.7-0.35-1.03-0.54h-0.05L146.011,313.08z M381.861,388.27
	c0.1,0.07,0.2,0.16,0.29,0.26c0.14,0.15,0.26,0.32,0.39,0.5c0.36,0.54,0.7,1.14,1.23,1.33c0.21,0.1,0.47,0.11,0.78,0.01l0.07-0.02
	l0.15-0.05l0.11-0.05c0.1-0.04,0.2-0.1,0.31-0.18l0.17-0.1v-0.01h0.01l-0.01-0.01c-0.36-0.37-0.71-0.74-1.06-1.12
	c-0.44-0.45-0.88-0.91-1.32-1.36c-0.89-0.74-1.82-2.7-2.79-1.72C379.031,386.93,380.811,387.7,381.861,388.27z M363.671,371.23
	c0.16,0.21,0.36,0.39,0.55,0.59c2.1,1.96,4.2,3.92,6.29,5.88c1.4,1.03,1.99,3.25,5,3.09c-1.76-1.58-3.03-2.73-4.31-3.87
	c-2.26-2.2-3.68-5.44-7.29-6.01C363.821,371.02,363.651,371.2,363.671,371.23z M351.741,361.16c0.93,0.96,1.92,1.77,2.82,2.63
	c0.14,0.15,0.29,0.29,0.43,0.43c0.14,0.14,0.28,0.28,0.42,0.43v0.01c-0.21,4.63,3.64,6.88,5.68,10.5c2.47-4.84,1.18-8-3.15-10.13
	c-0.4-0.19-0.63-0.72-0.95-1.09c-2.02-2.89-4.61-5.15-8.43-7.85C349.331,358.34,350.491,359.88,351.741,361.16z M349.011,410.08
	l0.1-0.12v-0.01l-0.02-0.12l-0.02,0.07L349.011,410.08z M394.701,391.04c0.93-4.68,3.49-8.58,5.19-12.88
	c1.67-4.24,4.43-8.08,5.13-12.72c-1.24-0.36-1.82,0.33-2.21,0.99c-2.55,4.4-6.15,7.84-6.38,13.91c-0.19,5-3.93,9.86-6.14,14.78
	l-0.1,0.02l-0.03,0.02l-0.15-0.15c-1.19-1.29-0.51-2.48,0.04-3.68c0.07-0.15,0.14-0.31,0.2-0.46l0.09-0.24
	c0.14-0.41,0.23-0.83,0.17-1.25c1.37-1.15,2.14-2.52,1.59-4.35l0.03-0.02l0.01-0.04c1.99-0.08,1.94-1.55,1.99-2.96
	c0.27-0.32,0.53-0.64,0.8-0.95c-0.18-0.12-0.36-0.24-0.54-0.36c-0.11,0.42-0.21,0.84-0.31,1.27c-2.04,0.1-1.68,1.75-1.94,3h-0.05
	l0.01,0.06c-1.55,0.82-1.94,2.27-2.11,3.85c-0.89,0.98-1.78,1.96-2.68,2.93c-0.57-0.7-1.36-1.93-2.12-1.33
	c-1.4,1.12,0.51,1.69,0.87,2.55c0.85,1.72,1.52,3.79,4.1,2.13l0.08,0.08v-0.01l0.05-0.11
	C392.711,394.78,394.311,393.02,394.701,391.04z M251.611,345.55c3.21,3.4,6.74,0.96,10.13,0.5c4.55-0.64,4.54-0.71,5.22-5.41
	c1.46-0.62,4.11,4.34,4.66-0.94c0.07-0.68,0.87-0.94,1.46-0.23c1.69,2.02,1.99,0.84,2.09-0.88c0.16-2.91,0.59-4.52,4.45-3.21
	c3.63,1.22,7.62,0.77,8.56-4.35c1.17,0.06,1.97,0.67,2.69,1.41c0.28,0.27,0.54,0.56,0.8,0.85c0.43,0.48,0.88,0.94,1.4,1.28
	c1.19-0.64,0.69-1.41,0.4-2.13c-0.41-0.98-0.55-2.1,0.43-2.62c1.12-0.59,1.62,0.76,2.35,1.3c3.02,2.21,2.74,6.61,5.77,8.84
	l-0.01,0.12l0.21,0.07c0.28,0.28,0.57,0.58,0.85,0.87c0.09-0.16,0.18-0.33,0.27-0.49c-0.38-0.13-0.75-0.25-1.12-0.38l-0.14-0.14
	l-0.06-0.05c0.18-1.57-0.57-3.63,1.26-4.38c2.7-1.11,3.43,2.52,5.8,2.98c0.77,0.15,1.43,1.31,2,2.43c0.18,0.37,0.36,0.74,0.53,1.07
	c9.39,18.15,18.72,36.34,28.15,54.47c1.05,2.03,1.95,3.99,0.59,6.02c-1.13,1.69-0.97,3.11,0.19,4.52c1.23,1.48,2.83,1.65,4.5,0.81
	c1.48-0.75,2.59-0.84,3.28-0.12l0.14,0.16c0.32,0.41,0.53,1.04,0.63,1.9c1.17-3.83,3.19-6.2,7.71-6.7c5.15-0.57,3.82-5.95,5.3-9.18
	c0.41-0.9-0.95-2-2.42-1.59c-2.83,0.81-6.01-0.45-8.67,1.36c-2.37,1.62-2.43-1.43-3.81-1.81c-3.43-6.59-6.85-13.18-10.28-19.77
	c-2.47-5.95-5.01-11.85-8.75-17.15c-3.5-6.94-6.99-13.88-10.49-20.82c0.56-0.72,1.53-1.21,2.02-0.44c2.1,3.33,6.27,3.51,8.83,6.08
	c0.36,0.47,0.9,1.05,1.41,0.59c0.76-0.7,0.25-1.3-0.54-1.66c-2.72-2.73-4.38-6.19-6.48-9.36c-0.57-0.87-1.28-1.79-0.4-2.62
	c1.07-1.03,1.7,0.38,2.42,0.86c2.46,1.64,5.06,2.74,8.09,2.38l-0.01,0.06l0.28,0.11l-0.21-0.17h-0.06c0.55-1.9-2.1-4.3-0.16-5.4
	c2.07-1.16,4.26,1.05,6.09,2.27c2.85,1.9,2.65,1.94,5.13-0.27c1.04-0.92,1.82,1.13,3.1,0.92c0.32-1.53-1.84-2.33-1.13-3.97
	c0.21-0.05,0.56-0.25,0.79-0.16c1.42,0.54,2.58,3.53,4.4,0.27c0.38-0.69,1.95-0.79,2.76-0.11c3.02,2.54,7.33,2.56,10.16,5.72
	c1.74-2.92-0.22-4.36-1.48-6.23c-0.66-0.98-3.28-1.3-1.72-3.36c1.08-1.43,2.59-1.32,4.03-0.59c0.86,0.43,1.18-0.08,1.58-0.6
	c0.26-0.21,0.5-0.43,0.73-0.68c1.29-0.05,2.47,0.28,3.63,0.72c0.3,0.11,0.61,0.23,0.91,0.36c0.31,0.12,0.61,0.24,0.92,0.37
	c0.45,0.18,0.92,0.36,1.38,0.5c0.31,0.1,0.62,0.19,0.93,0.25l0.01,0.01l0.13,0.09l-0.12-0.1h-0.01h-0.01v-0.01
	c-0.88-3.94,2.94-1.07,3.23-2.12c0.37-1.32-2.57-4.11,0.36-4.14c4.14-0.03,4.87-2.05,5.96-5.12c0.77-2.15,7.23-0.79,9.64,1.68
	c3.98,4.07,8.3,8.3,9.62,13.69c0.79,3.29,3.9,5.7,3.04,9.87c-0.37,1.82,3.55,3.36,6.8,3.29c-3.05,0.8-3.1,2.27-0.92,3.5
	c3.54,2,4.33,4.14,1.13,7.06c-1.09,0.99-1.11,2.15-0.14,3.04c2.51,2.32,5.18,4.45,7.71,6.74c0.81,0.74,2.58,1.46,2.05,2.51
	c-1.51,3.01,1.81,3.35,2.44,5.09c-0.49,0.39-1.36,0.98-1.3,1.08c2.3,4.3,1.33,9.18,2.5,13.67c-2.25,1.86-4.5,3.71-6.74,5.59
	c-0.55,0.46-1.78,0.6-1.13,1.77c0.75,1.34,1.8,0.42,2.45,0.01c2.5-1.62,4.89-3.41,7.33-5.13c-1.27,2.88,1.95,3.25,2.9,4.95
	c-3.6-0.01-3.83,0.53-3.28,4.02c1.16,7.4,2.12,14.83,3.09,22.26c0.58,4.48-1.54,6.51-7.44,5.7c5.57,2.9,5.98,6.81,5.74,11
	c-20.67,0-41.33,0-62,0c-0.38-2.15,0.74-3.22,2.52-4.27c6.29-3.69,12.38-7.73,18.7-11.36c3.37-1.93,6.65-4.26,10.86-4.38
	c1.16-0.04,2.4-1.65,1.56-2.69c-1.8-2.21,0.29-2.71,1.14-3.95c1.21-1.75,3.9-2.23,4.49-4.87c-4.12,0.6-9.12,3.46-9.12,5.16
	c-0.03,5.49-4.23,5.3-6.86,6.06c-6.05,1.74-11.16,4.3-16.13,8.42c-5.09,4.21-11.13,7.41-16.16,11.88
	c-118.55,0-237.11-0.01-355.66,0.07c-3.34,0.01-4.47-0.35-4.46-4.22C-0.82,373.23-0.88,320.62-0.88,268
	c7.23,1.29,14.46,2.59,22.14,3.96c-1.94,1.37-2.79,3.03-3.8,4.94c3.97,1.33,7.68,2.99,9.72,6.88c0.68,1.31,2.04,1.45,3.01,1.16
	c5.56-1.67,9.68,1.26,13.88,4.05c0.03,0.64,0.19,1.32,0.05,1.93c-0.79,3.49,1.96,6.01,5.52,4.9c0.9-0.29,1.78-1.37,2.67-0.52
	c1.34,1.28-1.04,1.78-0.87,2.06c0.81,1.3,2.41,3.58,2.86,3.39c2.43-0.99,4.71,1.05,7-0.05c1.9-0.93,4.27-2.34,5.37,0.58
	c0.94,2.49-2.41,2.3-3.36,4.09c3.34-1.92,7.29,2.07,10.4-1.5c4.61,2.88,5.43-1.85,7.64-3.8c0.63-0.55,0.84-1.7,2.14-0.3
	c2.42,2.59,5.77,0.82,8.23,0.27c4.92-1.11,6.7,0.03,6.16,5.74c1.84-1.34,1.21-3.79,2.87-5.51c3.44,3.09,8.31,4.34,9.24,10.39
	c0.45,2.94,4.33,5.11,5.71,8.37c0.19,0.46,2.35,0.64,3.16,0.18c2.68-1.52,3.33,0.92,5.1,1.7c0.85-0.76-4.79-7.53,2.82-3.55
	c1.55,0.81,2.8-0.45,3.06-2.24c0.25-1.64,0.33-3.32,0.74-4.91c0.27-1.08,0.54-2.55,1.82-2.8c1.73-0.35,1.15,1.91,1.96,2.29
	c4.17,1.97,2.68,4.96,1.56,7.84c-0.69,1.76-0.48,3.56,0.69,4.61c0.76,0.67,2.84,0.54,3.79,0.27c1.4-0.39,1.25-2.5,1.07-3.98
	c-0.44-3.51,0.25-5.97,4.55-5.43c0.27-3.83,4.79-3.5,6.29-6.32c0.51-0.96,1.65-1.41,0.82-2.66h0.02l0.04-0.07c2.26,0,4.54,0,7.48,0
	l1.69-0.15c0.18,0.92,0.6,2.03,0.23,2.55c-2.12,2.95-2.39,5.89-0.67,9.09c2.28-0.6,1.84-3.88,4.22-4.37
	c1.65,5.78,1.78-3.08,3.18-0.38c1.32,2.11-0.06,5.17,1.86,6.87c2.2,1.96,4.62,4.32,8.16,2.29c0.76-0.43,1.8-1.15,2.73-0.21
	c1.13,1.14-0.22,1.59-0.68,2.37c-1.5,2.57,0.82,3.61,2.69,5.71c6.49,7.25,4.75-1.44,6.5-3.01c2.44-2.18,4.73-4.52,6.99-6.88
	c0.91-0.96,1.69-2.52,3.11-1.14c1.15,1.13,1.97,2.7,0.75,4.46c-1.54,2.22-3.87,3.4-6.45,5.05c3.34,1.59,3.35,4.27,1.98,7.91
	c3.16-1.63,5.26-3.74,5.05-5.88c-0.49-4.9,2.95-3.87,5.65-4.76c0.19,1.67,0.34,3.08,0.5,4.49l-0.07-0.01l-0.12,0.13
	c-0.37,0.08-0.75,0.15-1.12,0.22c0.14,0.2,0.27,0.39,0.4,0.58c0.24-0.27,0.48-0.53,0.72-0.8l0.2-0.04l-0.01-0.08
	c2.68,0.42,1.84,2.62,1.91,4.2c0.15,3.01,0.05,6.04,0.05,9.13c1.79-1.33,1.77-4.97,3.87-4.58c1.86,0.35,3.26,2.83,3.05,5.56
	c-0.15,1.97,1.49,1.47,2.37,0.73c0.95-0.8,1.58-1.98,2.84-3.65c0.2,5.93,5.09,7.42,8.13,10.17c1.68,1.51,4.6-2.22,7.52-2.21
	c0.71,0.01,1.73-1.47,2.97-0.93C244.621,348.05,248.271,348.87,251.611,345.55z"/>
<path fill="#D1D5D3" d="M212.191,229.94c0.93-0.03,1.98,0.49,2.81-0.51C213.821,228.69,212.951,229.08,212.191,229.94z
	 M410.991,318.05c0.05,1.18,0.67,1.88,1.89,1.55c0.88-0.24,2.21-0.57,1.71-1.81c-0.3-0.73-1.49-1.11-2.15-1.55
	C411.191,316.44,410.961,317.18,410.991,318.05z M410.691,311.26l-0.18,0.26l0.29,0.03L410.691,311.26z M131.601,191.11
	c-0.17-0.2-0.34-0.4-0.51-0.59c-0.16,0.21-0.35,0.4-0.46,0.64l0.25,0.32C131.141,191.39,131.361,191.24,131.601,191.11z
	 M379.371,217.55c2.31-0.08,4.66,4,6.75-0.09c0.48-0.94,2.21-2.3,1-2.74c-2.21-0.81-4.68-2.15-8.21-0.77
	C384.591,215.65,381.351,216.41,379.371,217.55z M280.511,166.7c-0.02,0.24,0.84,0.81,0.98,0.72c1.37-0.85,2.84-1.73,1.98-3.88
	C281.431,163.71,280.591,164.9,280.511,166.7z M265.431,251.82c0.76-0.94,1.78-1.96,2.47-3.17c0.3-0.54-0.4-1.29-1.17-1.11
	c-1.45,0.34-3.02,0.74-3.13,2.62C263.561,251,264.081,251.71,265.431,251.82z M259.291,182.28c0.81-2.45-0.02-4.55-1.17-6.47
	c-0.33-0.55-1.2,0.25-1.49,0.82C255.151,179.49,258.161,180.46,259.291,182.28z M256.141,204.7c2.53,0.5,3.37-1.21,1.44-3.58
	c-1.35-1.66,2.22-1.86,0.41-2.92c-1.35-0.78-2.57,0.95-3.76,0.53c-3.19-1.13-1.94-4.52-3.12-6.7l0.03,0.01l0.19-0.27l-0.24,0.22
	l0.02,0.04c-3.04-0.74-5.98-0.98-7.87,2.21c-0.75,1.27-1.31,0.39-1.91,0.03l-0.06-0.04c-2.2-1.29-4.38-2.63-6.67-4.03
	c1.42-1.44,3.46,0.62,4.52-1.17c1.65-0.35,3.3-0.7,4.96-1.06v0.06c0.15,0.05,0.3,0.1,0.45,0.15c-0.13-0.07-0.26-0.15-0.38-0.22
	l-0.07,0.01c0.02-1.98,0.05-3.96,0.08-5.94c1.44-0.31,2.2,1.33,3.8,1.34c0.3-4.89-4.04-7.21-6.38-11.31
	c3.62,0.49,5.09,3.21,7.27,4.73c2.52,1.75,4.22,0.86,3.93-1.62c-0.26-2.34,0.51-4.83-0.76-8c-1.39,3.16-0.5,5.76-0.89,8.44
	c-3.22-2.11-4.19-5.05-3.91-8.27c0.35-3.96-1.57-6.48-4.2-9.04c-1.74-1.69-3.33-1.62-5.38-1.25c-2.68,0.5-1.72,2.74-2.7,4.54
	c-1.48-5.87-9.2-7.73-8-14.86c-1.63,0.22-1.62,0.94-1.8,1.54c-0.43,1.41-0.63,3.35-2.41,3.35c-1.74-0.01-1.78-2.04-2.49-3.3
	c-2.62-4.61-6.19-8.78-11.66-8.88c-3.02-0.05-7.38-0.75-9.5,2.85c-2.21,3.78-4.41,2.43-6.89,0.61c-1.68-1.22-2.75-3.29-4.89-3.88
	c-1.7,1.56,3.16,4.26-1.11,4.99l-0.02-0.06l-0.22-0.05c-0.27-0.2-0.54-0.41-0.82-0.61c-0.06,0.13-0.13,0.25-0.2,0.38
	c0.35,0.07,0.68,0.15,1.02,0.23l0.16,0.12l0.08-0.01c1.86,5.73-4.32,6.1-6.28,9.29c-0.14,0.23-0.57,0.43-0.87,0.43
	c-3.7-0.01-3.13,5.81-5.8,5.19c-2.5-0.57-4.79-2.42-7.73-2.28c-0.14,3.25,3.12,1.51,3.91,3.34c-1.7,2.17-4.44,0.28-6.34,1.54
	c1.46,2.97,1.42,2.85-2.28,4.1c-1.37,0.46-4.13-0.3-3.75,2.11c0.3,1.94,2.76,1.19,4.34,1.38c1.27,0.15,2.65-0.39,4.3,1.07
	c-3.26,0.88-6.12,1.76-9.04,2.42c-3.23,0.73-6.77,0.08-8.56,4.41c-0.82,2-3.86,0.65-5.99,0.36c-2.36-0.33-4.88-2.77-7.32,0.05
	c6.58,4.54,6.65,4.74,3.06,8.86c2.25,1.64,5.66,0.11,7.85,2.99c-2.81,0.73-5.3-0.88-7.83-0.07c-2.51,0.8-4.52,1.44-2.9,4.69
	c2.39,4.83-0.5,5.68-4.25,5.01c-5.65-1.01-11.2-1.31-16.74,0.37c-0.61,0.18-1.18,0.53-1.97,0.9c0.77,1.49,2.04,1.81,3.27,1.77
	c2.19-0.07,4.39,0,6.58,0.09l0.03,0.84c-1.8,0-5.23,1.73-5.95,3.26c-0.84,1.77-3.14,2.5-4.87,2.59c-4.13,0.2-6.44,3.26-9.3,5.32
	c-2.42,1.76,1.58,1.63,1.39,2.98l-0.07-0.06l0.01,0.09c-2.73,1.08-6.27,0-8.72,3.13c2.21,0,4.04-0.34,5.69,0.08
	c3.33,0.83,3.17-1.1,3.03-3.21l0.06-0.02v-0.01c1.41,1.22,2.81,2.43,4.2,3.63c-1.09,1.72-2.82,1.55-4.16,1.81
	c-2.86,0.55-3.51,2.77-3.74,4.88c-0.23,2.08,1.44,1.23,2.41,0.74c2.75-1.39,5.69-1.02,8.62-1.49c-0.03,1.98-1.22,2.31-2.38,2.35
	c-2.98,0.11-5.52,1.53-7.83,3.04c-1.96,1.29-4.28,1.47-2.98,6.36c1.69,6.34,4.87,6.03,10.17,6.07c-3.15,2.39-6.03,1.18-8.35,2.29
	c-1.43,0.68-1.47,0.45-1.18,2.61c0.21,1.59-2.09,1.57-2.09,3.48c0.01,3.08-2.43,6.09-2.73,8.51c-0.59,4.84-7.48,5.9-5.74,11.47
	c0.21,0.67-1.65,1.92-2.43,2.99c-1.05,1.43-0.32,2.07,1.13,2.26c-0.31,0.75-0.45,1.92-0.97,2.14c-1.9,0.76-0.98,5.15-4.1,3.56
	c-1.54-0.78,0.16-3.03,0.51-4.4c0.73-2.84-1.18-2.08-2.42-2.37c-1.51-1.56-3.34-0.89-5.11-0.73c-1.05,0.1-2.27,1.4-3.09-0.06
	c-0.67-1.2,1.96-1.37,1.07-3.15c-3.49,1.17-6.48-1.74-9.64-1.76c-5.9-0.03-11.83,1.03-16.38,5.61c-4.14,4.17-7.1,4.41-11.66,0.91
	c-1.24-0.95-2.54-1.52-4.04-1.79c-2.59-0.45-5.41-0.06-2.81-4.54c1.38-2.37-2.8-0.65-3.86-2.19c-0.28-2.01,2.2-0.82,2.65-2.09
	c-2.19-2.94-4.61-5.62-7.99-7.54c-2.28-1.29-0.21-7.48,2.84-8.37c9.48-2.75,15.63-9.27,20.47-17.44c1.12-1.9,3.33-3.13,4.92-4.28
	c4.67-3.37,4.68-7.57,3.77-12.17c-0.57-2.94-0.14-5.17,2.27-7.03c3.74-2.88,4.61-6.79,3.23-11.06c-0.76-2.34,0.43-3.64,1.35-5.43
	c1.01-1.98,2.71-5.23-2.34-4.23c-1.45,0.29-1.62-0.21-2.1-1.68c-1.26-3.85-1.03-8.21-4.17-11.49c-1.66-1.73-1.58-5.36-0.34-6.26
	c2.28-1.64,5.5-0.47,7.69,1.27c2.92,2.33,3.89,1.09,4.81-1.73c0.71-2.17-0.6-2.62-2.1-3.11c-4.58-1.48-6.74-4.95-8.15-9.32
	c-1.21-3.75-3.33-7.1-5.59-10.37c-1.99-2.86-3-5.76,1.58-7.52c2.19-0.84,3.03-2.96,3.5-5.16c0.39-1.79,0.7-3.6,1.19-5.35
	c0.78-2.76,2.75-5.38,5.27-5.37c2.35,0.01,1.59,3.5,2.23,5.41c1.11,3.32,1.72,6.75,1.59,10.31c-0.1,2.53,0.71,4.62,3.81,4.82
	c3.01,0.2,4.38-1.1,5.11-4.1c1.61-6.64,4.85-11.48,12.65-12.53c4.99-0.68,7.89-5.17,9.85-9.63c0.65-1.48,0.96-1.19,1.99-0.78
	c3.07,1.23,5.15,0.46,5.69-3.07c0.03-0.16,0.06-0.45,0.13-0.47c4.86-0.9,6.29-5.87,9.77-8.27c7.75-5.36,15.36-10.51,19.75-19.44
	c2.9-5.89,6.83-11.32,10.78-16.6c1.1-1.49,1.78-2.62,1.58-4.31c-0.64-5.46,2.47-10.54,1.53-16.1c-0.39-2.29,1.98-3,3.73-3.2
	c8.27-0.92,15.18-5.47,22.51-8.65c9.51-4.14,18.89-8.06,29.4-8.45c6.42-0.24,13.06-1.56,19.21-0.39c6.18,1.18,12.39,2.37,18.58,2.83
	c6.72,0.5,14.05,3.63,20.09-2.52c0.8-0.81,2.14-0.68,3.85,0.19c-0.97,0.66-1.75,1.19-2.78,1.89c8.14,0.25,15.86,1.32,23.5,2.83
	c2.49,0.5,5.88-0.7,7.24,2.9c0.08,0.24,0.97,0.43,1.3,0.27c5.84-2.79,8.79,3.07,13.19,4.19c4.04,1.03,7.54,6.25,12.55,2.34
	c0.59-0.46,1.75-0.78,2.37-0.53c9.88,4.06,11.97-4.78,16.82-9.73c1.01,2.47,1.57,4.72-1.13,7.05c-2.18,1.87-1.09,6.3,1.6,7.65
	c2.05,1.03,2.52,2.74,2.6,4.88c0.11,2.84,0.56,5.66,3.83,6.8c-0.04,0.26-0.04,0.51-0.01,0.76c2.49,3.72,0.82,8.45,3.01,12.25
	c4.28,7.41,5.02,16.09,8.95,23.87c2.9,5.76,7.2,7.86,11.58,10.83c3.25,2.21,2.45,6.47,5.2,9.08c3.99,3.81,3.79,11.41,11.14,12.33
	c2.39,0.3,1.26,2.28,1.42,3.59c0.46,3.69,1.36,6.5,6.21,6.11c4.36-0.35-0.11,3.4,1.66,4.49c-1.48,1.98-1.54,3.36,1.47,3.43
	c1.2,0.03,1.55,0.23,1.16,1.75c-1.06,4.19-2.59,8.87,4.45,9.47c1.17,0.1,1.84,0.95,1.14,2.56c-3.02,6.96-2.16,8.09,5.15,7.24
	c0.28-0.03,0.6,0.23,0.93,0.37c-0.38,1.94-2.28,1.57-3.43,2.32c-0.91,0.59-3.16,0.26-2.1,2.4c0.76,1.51-1.34,4.27,2.12,4.63
	c1.1,0.11,2.12,0.89,3.21,1.29c2.62,0.97,1.69,2.4,0.07,4.08c2.05,0,3.64,0,6.76,0c-5.48,2.25-5.36,6.05-4.79,9.45
	c0.41,2.42,3.04,3.13,5.95,3.01c-3.57,1.82,0.11,6.09-3.68,7.28c1.56,1.82,3.58,0.33,4.93,1.56c-0.53,2.28-4.37,4.06-0.81,7.29
	c0.53,0.48,1.17,6.14-2.17,8.2c-1.06,0.65-0.92,1.19-0.29,1.92c2.74,3.21,3.03,4.31,2.67,9.85c-0.02,0.36,0.38,0.79,0.67,1.13
	c3.83,4.55,3.71,5.1-1.32,8.69c-0.83,0.59-2.7,0.07-2.43,1.86c0.2,1.39,1.02,2.51,2.55,2.72c2.62,0.35,4.23,1.11,2.08,3.97
	c-0.24,0.31-0.03,0.97,0,1.46c0.31,4.39,0.31,4.39-3.4,5.29c0.26,1.78,2.47,0.62,3.02,2c-1.54,0.95-3.1,1.85-4.58,2.86
	c-1.4,0.96-3.22,2.02-0.35,3.41c1.45,0.71,0.04,1.19,0.03,1.78c-0.03,1.34-3.32,0.58-1.69,2.92c1.42,2.04,2.28,3.71,5.65,3.01
	c7.37-1.53,14.41-3.99,21.45-6.49c1.73-0.61,3.37-1.48,5.29-1.13c0,4.67,0,9.33,0,14c-6.87-1.99-13.26,1.54-19.95,1.78
	c-2.41,0.09-4.8,1.13-7.16,1.86c-2.41,0.75-5.86,0.13-5.16,4.76c0.3,1.99-4.88,1.02-3.7,4.59l-0.04-0.02l-0.17,0.13
	c-0.36,0.09-0.72,0.17-1.07,0.25c0.07,0.14,0.15,0.27,0.22,0.41c0.28-0.22,0.57-0.43,0.85-0.66l0.23-0.05l-0.02-0.06
	c3.13,1.74-0.94,2.74-0.5,4.19c3.19-0.09,4.75,3.79,6.19,6.01c1.85,2.85,3.91,4.72,2.11,8.33c-0.11,0.22,2.78,1.84,4.17,2.93
	c1.7,1.34,5.13-0.99,5.19,0.87c0.1,2.76,2.48,2.77,3.34,4.37c-1.53,2.34-4.07,2-6.23,2.58c0.57,2,3.61-0.32,3.76,2.13
	c0.04,0.68-0.51,1.76-1.09,2.06c-1.9,0.94-4.28,1.15-5.59-0.47c-2.12-2.62-4.04-2.4-6.23-0.4c-1.51-2,0.34-3.28,0.5-4.79
	c0.22-2.17,0.09-2.26-2.39-2.53c-1.86-0.21-0.74-3.7-3.35-3.37c0.71-1.13,1.42-2.26,2.27-3.61c-5.56,0.2-6.7-6.52-11.74-6.97
	c1.89-3.84-2.24-2.02-3.26-3.03c-1.54-1.54-1.88-4.27-3.85-4.83c-2.98-0.84-2.44-3.15-2.94-5.09c-0.28-1.09,0.46-2.11-0.13-3.37
	c-1.51-3.23-1.85-5.86,0.4-9.77c1.58-2.73,1.05-7.03,3.53-10.61c1.71-2.49,1.29-6.69-0.6-10.41c-1.8-3.54-0.35-7.9,0.82-11.69
	c1.35-4.37-0.63-7.72-4.8-6.25c-4.41,1.57-5.87-2.92-9.2-2.89c-0.49,0-1.14-0.85-0.71-1.59c0.61-1.04,1.76-0.84,2.69-0.78
	c3.75,0.24,3.18-1.3,1.22-3.29c2.29-1.15,4.41-0.42,7.24,0.08c-2.26-3.35-4.49-4.98-7.94-4.89c-3.32,0.08-6.65-0.08-9.98-0.15
	c-2.84-0.06-3.56-2.68-4.24-4.43c-0.87-2.25,2.08-1.93,3.2-2.93c2.66-2.35,6.16-0.69,9.45-1.98c-2.26-2.24-4.87-1.27-7.15-1.4
	c-4.96-0.26-4.22-0.53-6.7-5.24c-1.11-2.09-2.71-7.72-8.14-5.22c0.88-0.6,1.76-1.19,2.63-1.79c-3.77,1.02-6.23-3.42-10.34-2.08
	c1.76-2.04,3.26-3.57-0.34-4.88c-3.11-1.13-4.82-3.8-6.55-6.79c-3.06-5.31-3.46-11.97-7.33-16.47c-5.76-6.7-10.71-14.7-20.39-17.03
	c-2.72-0.65-4.44-0.2-6.15,1.74c-1.76,1.99-4.22,3.42-5.84,5.32c-2.52,2.97-2.41,7.31-3.06,11.09c-0.32,1.86-0.38,3.46-1.89,4.74
	c-3.09,2.63,0.32,5.87-0.75,8.68c-1.72,4.51,0.98,6.54,4.49,8.12c0.25,0.12,0.64-0.08,0.96-0.13c0.46,0.59,0.93,1.19,1.39,1.79
	c-0.41,1.52,0.12,2.26,1.73,2.12c4.42,5.67,8.83,11.33,13.24,17c-2.22,5.73,2.34,9.75,3.83,14.5c0.52,1.64,1.68,3.43,3.27,4.83
	c1.55,1.38,2.79,4.28,0.61,5.66c-3.82,2.42-1.75,3.95,0.35,5.29c2.06,1.33,3.05,2.88,2.94,5.28c-0.04,0.81-0.11,1.82,0.3,2.43
	c5.45,8.03,0.91,14.46-2.82,21.39c-1.96,3.64-5.5,2.53-6.5,1.76c-2.5-1.91-6.29-3.13-7.07-6.49c-1.51-6.56-6.94-6.62-11.92-8.11
	c0.81-1.01,2.52,0.03,3.25-1.47c-2.03-2.2-4.26-0.63-6.31-0.12c-2.64,0.65-4.89,1.36-6.59-1.92c-0.77-1.48-2.29-1.28-3.79-1.09
	c-0.56,0.07-1.13,0.13-1.65,0.1l-0.02-0.05c-0.11-0.06-0.23-0.12-0.34-0.19c0.1,0.08,0.19,0.16,0.28,0.24h0.01l-0.01,0.01h0.08
	c0.33,1.31,3.89,0.85,1.93,3.38c-1.51,1.95-2.6-0.03-3.75-0.6c-2.4-1.18-4.56-2.02-6.91,0.37c-0.82,0.83-1.82,1.07-0.36,1.89
	c1.92,1.09-0.22,1.08-0.4,1.33c-0.45,0.62-1.28,0.62-1.21-0.37c0.14-2.09-1.19-3.82-1.03-6.01c0.16-2.32-0.61-4.5-3.61-1.63
	c-1.08,1.03-3.13,1.07-4.73,1.56c-1.98-1.84-1.99-1.83-3.44,0.03c-0.09,0.12-0.26,0.37-0.26,0.36c-4.84-3.27-5.52,4.28-9.35,3.6
	c-1.25-0.89-1.36-0.84-2.8,0.7c-2.49,2.69-4.74,5.53-7.13,8.3c-1.76,2.06-5.3,0.85-6.02-1.75c-0.1-0.37,0.26-1.22-0.32-1.1
	c-3.18,0.62-7.02-1.16-9.51,1.2c-5.1,4.83-10.41,6.54-16.91,3.3c-1.06-0.53-1.9,0.07-2.77,0.58c-3.3,1.96-6.86,2.17-10.6,1.82
	c-5.26-0.49-4.77-0.45-5.59-6.52c-0.42-3.17-2.41-5.91,2.37-7.15c-4.78-3.81-2.16-7.83-0.66-12.99c2.01-6.95,8.51-3.26,10.81-7.53
	c-0.34-1.24-1.68-0.34-2.32-0.84c-1.85-1.44-2.8-2.85-0.05-4.52c2.9-1.76,6.04-1.51,9.18-1.65c1.6-0.07,3.85,1.06,4.32-1.77
	l0.07-0.01l0.06-0.07h-0.11l-0.02,0.08c-1.54,0.27-3.07,0.53-4.67,0.81c0.08-3.76,5.4-2.38,5.7-5.86l0.06,0.05l0.07-0.08
	c0.28-0.06,0.55-0.11,0.83-0.15c-0.11-0.16-0.21-0.32-0.31-0.47c-0.18,0.2-0.35,0.42-0.52,0.62l-0.13,0.02v0.01
	c-0.73-0.53-3.83,0.41-1.28-2.2c1.64-1.67,3.6-2.69,6.84-3.49c-2.72-1.27-2.75-5.38-7.23-2.31c1.08-2.23,2.25-3.92,0.3-5.27
	l0.13-0.15c4.66,1.76,3.5-3.87,6.06-4.92c0.4-0.17-0.9-1.33-1.75-1.69c0.42-0.61,0.83-1.23,1.25-1.84c1.92-0.18,2.2-1.36,1.8-2.95
	l0.1-0.08c1.75,0.22,2.06-0.68,1.68-2.14c0.32-0.28,0.65-0.57,0.97-0.86c-0.01,0.74,0.25,1.4,1.08,1.03
	c1.08-0.47,1.18-1.42,0.7-2.45c0.16-0.24,0.35-0.44,0.58-0.61c5.62-3.97,10.68-1.08,15.95,0.87c0.22,0.08,0.45,0.16,0.67,0.24
	c4.13,1.46,5.72,4.42,3.65,9.39C248.581,204.06,252.281,203.95,256.141,204.7z M203.991,239.61l0.32-0.08l-0.27-0.17L203.991,239.61
	z"/>
<path fill="#010101" d="M44.331,288.68c-0.07,0.11-0.13,0.23-0.2,0.35l-0.02-0.02l-0.04-0.05
	C44.151,288.86,44.241,288.77,44.331,288.68z"/>
<polygon fill="#010101" points="44.071,288.96 44.111,289.01 44.071,288.99 "/>
<polygon fill="#010101" points="42.211,120.95 42.201,120.99 42.141,121.02 "/>
<polygon fill="#7F8076" points="42.211,120.95 42.141,121.02 41.901,120.82 "/>
</svg>
